<?xml version="1.0" encoding="UTF-8" standalone="no"?>
<!-- Created with Inkscape (http://www.inkscape.org/) -->

<svg
   xmlns:dc="http://purl.org/dc/elements/1.1/"
   xmlns:cc="http://creativecommons.org/ns#"
   xmlns:rdf="http://www.w3.org/1999/02/22-rdf-syntax-ns#"
   xmlns:svg="http://www.w3.org/2000/svg"
   xmlns="http://www.w3.org/2000/svg"
   xmlns:xlink="http://www.w3.org/1999/xlink"
   xmlns:sodipodi="http://sodipodi.sourceforge.net/DTD/sodipodi-0.dtd"
   xmlns:inkscape="http://www.inkscape.org/namespaces/inkscape"
   width="744.09448819"
   height="1052.3622047"
   id="svg2"
   version="1.1"
   inkscape:version="0.48.4 r9939"
   sodipodi:docname="New document 1">
  <defs
     id="defs4">
    <linearGradient
       inkscape:collect="always"
       id="linearGradient4495">
      <stop
         style="stop-color:#aa4400;stop-opacity:1;"
         offset="0"
         id="stop4497" />
      <stop
         style="stop-color:#dd5800;stop-opacity:1"
         offset="1"
         id="stop4499" />
    </linearGradient>
    <linearGradient
       inkscape:collect="always"
       id="linearGradient4487">
      <stop
         style="stop-color:#ffde5a;stop-opacity:1"
         offset="0"
         id="stop4489" />
      <stop
         style="stop-color:#ffd739;stop-opacity:1"
         offset="1"
         id="stop4491" />
    </linearGradient>
    <linearGradient
       inkscape:collect="always"
       id="linearGradient4479">
      <stop
         style="stop-color:#fff3c5;stop-opacity:1"
         offset="0"
         id="stop4481" />
      <stop
         style="stop-color:#ffe680;stop-opacity:1"
         offset="1"
         id="stop4483" />
    </linearGradient>
    <linearGradient
       inkscape:collect="always"
       xlink:href="#linearGradient4495"
       id="linearGradient4543"
       gradientUnits="userSpaceOnUse"
       x1="266.38666"
       y1="54.560593"
       x2="324.29639"
       y2="159.10133" />
    <linearGradient
       inkscape:collect="always"
       xlink:href="#linearGradient4479"
       id="linearGradient4545"
       gradientUnits="userSpaceOnUse"
       x1="261.69003"
       y1="58.885845"
       x2="282.78143"
       y2="98.365524" />
    <linearGradient
       inkscape:collect="always"
       xlink:href="#linearGradient4487"
       id="linearGradient4547"
       gradientUnits="userSpaceOnUse"
       x1="410.13794"
       y1="175.91936"
       x2="405.50797"
       y2="212.99655" />
    <clipPath
       clipPathUnits="userSpaceOnUse"
       id="clipPath4563">
      <path
         style="color:#000000;fill:#ff0000;fill-opacity:1;stroke:none;stroke-width:1;marker:none;visibility:visible;display:inline;overflow:visible;enable-background:accumulate"
         d="m 260.67595,40.204728 0,294.898732 278.90422,0 0,-294.898732 -278.90422,0 z m 54.35633,135.172332 189.93478,0 0,1.99931 -189.93478,0 0,-1.99931 z m 0,13.99519 189.93478,0 0,3.99863 -189.93478,0 0,-3.99863 z m 0,13.9952 189.93478,0 0,5.99794 -189.93478,0 0,-5.99794 z m 0,13.99519 189.93478,0 0,7.99726 -189.93478,0 0,-7.99726 z m 0,13.9952 189.93478,0 0,9.99656 -189.93478,0 0,-9.99656 z"
         id="path4565"
         inkscape:connector-curvature="0" />
    </clipPath>
  </defs>
  <sodipodi:namedview
     id="base"
     pagecolor="#ffffff"
     bordercolor="#666666"
     borderopacity="1.0"
     inkscape:pageopacity="0.0"
     inkscape:pageshadow="2"
     inkscape:zoom="0.70710678"
     inkscape:cx="330.87583"
     inkscape:cy="678.9729"
     inkscape:document-units="px"
     inkscape:current-layer="layer1"
     showgrid="false"
     inkscape:snap-center="true"
     inkscape:snap-grids="true"
     inkscape:snap-object-midpoints="false"
     inkscape:snap-bbox="true"
     inkscape:snap-global="true"
     inkscape:window-width="1920"
     inkscape:window-height="1029"
     inkscape:window-x="0"
     inkscape:window-y="0"
     inkscape:window-maximized="1">
    <inkscape:grid
       type="xygrid"
       id="grid4325" />
  </sodipodi:namedview>
  <metadata
     id="metadata7">
    <rdf:RDF>
      <cc:Work
         rdf:about="">
        <dc:format>image/svg+xml</dc:format>
        <dc:type
           rdf:resource="http://purl.org/dc/dcmitype/StillImage" />
        <dc:title></dc:title>
      </cc:Work>
    </rdf:RDF>
  </metadata>
  <g
     inkscape:label="Layer 1"
     inkscape:groupmode="layer"
     id="layer1">
    <rect
       style="color:#000000;fill:none;fill-opacity:1;stroke:none;stroke-width:1;marker:none;visibility:visible;display:inline;overflow:visible;enable-background:accumulate"
       id="rect4327"
       width="128"
       height="128"
       x="345"
       y="117.36218"
       inkscape:export-filename="/home/mike/Desktop/stp-16.png"
       inkscape:export-xdpi="11.25"
       inkscape:export-ydpi="11.25" />
    <g
       id="g4522"
       transform="matrix(1.0003434,0,0,1.0003434,-0.14045146,-0.06228305)"
       clip-path="url(#clipPath4563)">
      <circle
         d="m 350.68468,110 c 0,34.06751 -27.61717,61.68468 -61.68468,61.68468 -34.06751,0 -61.68468,-27.61717 -61.68468,-61.68468 0,-34.067506 27.61717,-61.684677 61.68468,-61.684677 34.06751,0 61.68468,27.617171 61.68468,61.684677 z"
         style="fill:url(#linearGradient4543);fill-opacity:1;stroke:none"
         sodipodi:ry="61.684677"
         sodipodi:rx="61.684677"
         sodipodi:cy="110"
         sodipodi:cx="289"
         id="circle4378"
         r="61.684677"
         cy="110"
         cx="289"
         stroke-linecap="null"
         stroke-linejoin="null"
         transform="matrix(0.89781964,0.51835641,-0.51835641,0.89781964,206.54933,-67.202977)" />
      <g
         transform="matrix(0.98216726,0,0,0.98216726,7.2935902,3.2341844)"
         id="g4407">
        <circle
           d="m 350.68468,110 c 0,34.06751 -27.61717,61.68468 -61.68468,61.68468 -34.06751,0 -61.68468,-27.61717 -61.68468,-61.68468 0,-34.067506 27.61717,-61.684677 61.68468,-61.684677 34.06751,0 61.68468,27.617171 61.68468,61.684677 z"
           style="fill:url(#linearGradient4545);fill-opacity:1;stroke:none"
           sodipodi:ry="61.684677"
           sodipodi:rx="61.684677"
           sodipodi:cy="110"
           sodipodi:cx="289"
           id="svg_5"
           r="61.684677"
           cy="110"
           cx="289"
           stroke-linecap="null"
           stroke-linejoin="null"
           transform="matrix(0.80012095,0.46195004,-0.46195004,0.80012095,228.57956,-40.154681)" />
        <path
           inkscape:connector-curvature="0"
           style="fill:url(#linearGradient4547);fill-opacity:1;stroke:none"
           d="m 460.8125,168.5 c -8.68651,0.0548 -17.89416,0.77864 -25.9375,2.28125 -16.08668,3.0052 -35.07896,4.16084 -51.09375,4.78125 -9.44567,0.36592 -21.43019,-0.13445 -31.375,-1.03125 -1.47997,12.32158 1.14064,24.78488 7.3125,35.4375 6.45577,2.60359 17.14964,6.31739 36.59375,7.125 23.17799,0.9627 33.0289,-5.80174 50.0625,-7.96875 3.86908,-0.49222 8.00072,-0.25666 12.25,0.21875 7.28023,-12.90436 8.98821,-27.43593 5.875,-40.84375 -1.22104,-0.0196 -2.44049,-0.008 -3.6875,0 z"
           id="path4391" />
        <path
           inkscape:connector-curvature="0"
           style="fill:#f7c500;fill-opacity:1;stroke:none"
           d="m 450.84375,208.84375 c -1.51711,0.006 -3.01784,0.0967 -4.46875,0.28125 -17.0336,2.16701 -26.88451,8.93145 -50.0625,7.96875 -19.44411,-0.80761 -30.13798,-4.52141 -36.59375,-7.125 4.83292,8.34161 11.83301,15.58373 20.78125,20.75 27.25813,15.73749 62.10626,6.38313 77.84375,-20.875 0.0965,-0.16717 0.18662,-0.33226 0.28125,-0.5 -2.6558,-0.29713 -5.25274,-0.50938 -7.78125,-0.5 z"
           id="circle4399" />
      </g>
      <g
         style="fill:#d45500"
         id="g4380">
        <circle
           d="m 287.21954,77 c 0,5.091814 -4.12773,9.219544 -9.21954,9.219544 -5.09181,0 -9.21954,-4.12773 -9.21954,-9.219544 0,-5.091814 4.12773,-9.219544 9.21954,-9.219544 5.09181,0 9.21954,4.12773 9.21954,9.219544 z"
           style="fill:#d45500;stroke:none"
           sodipodi:ry="9.2195444"
           sodipodi:rx="9.2195444"
           sodipodi:cy="77"
           sodipodi:cx="278"
           id="svg_20"
           r="9.2195444"
           cy="77"
           cx="278"
           stroke-linecap="null"
           stroke-linejoin="null"
           transform="matrix(0.85000539,0.49075084,-0.49075084,0.85000539,221.33104,-57.2154)" />
        <circle
           d="m 333.544,102 c 0,4.71872 -3.82528,8.544 -8.544,8.544 -4.71872,0 -8.544,-3.82528 -8.544,-8.544 0,-4.718723 3.82528,-8.544004 8.544,-8.544004 4.71872,0 8.544,3.825281 8.544,8.544004 z"
           style="fill:#d45500;stroke:none"
           sodipodi:ry="8.5440044"
           sodipodi:rx="8.5440044"
           sodipodi:cy="102"
           sodipodi:cx="325"
           id="svg_21"
           r="8.5440044"
           cy="102"
           cx="325"
           stroke-linecap="null"
           stroke-linejoin="null"
           transform="matrix(0.85000539,0.49075084,-0.49075084,0.85000539,222.83104,-52.9654)" />
        <path
           inkscape:connector-curvature="0"
           style="fill:#d45500;stroke:none"
           d="m 375.60706,180.3675 c -2.16827,3.75556 -6.97049,5.04231 -10.72605,2.87403 -3.75556,-2.16827 -5.04231,-6.97048 -2.87404,-10.72604 2.16828,-3.75557 6.97049,-5.04232 10.72606,-2.87404 3.75556,2.16827 5.04231,6.97048 2.87403,10.72605 z"
           id="svg_22" />
        <circle
           d="m 304.06226,148 c 0,4.45266 -3.6096,8.06226 -8.06226,8.06226 -4.45266,0 -8.06226,-3.6096 -8.06226,-8.06226 0,-4.45266 3.6096,-8.06226 8.06226,-8.06226 4.45266,0 8.06226,3.6096 8.06226,8.06226 z"
           style="fill:#d45500;stroke:none"
           sodipodi:ry="8.0622578"
           sodipodi:rx="8.0622578"
           sodipodi:cy="148"
           sodipodi:cx="296"
           id="svg_23"
           r="8.0622578"
           cy="148"
           cx="296"
           stroke-linecap="null"
           stroke-linejoin="null"
           transform="matrix(0.85000539,0.49075084,-0.49075084,0.85000539,217.33104,-53.9654)" />
        <circle
           d="m 287,112 c 0,3.86599 -3.13401,7 -7,7 -3.86599,0 -7,-3.13401 -7,-7 0,-3.86599 3.13401,-7 7,-7 3.86599,0 7,3.13401 7,7 z"
           style="fill:#d45500;stroke:none"
           sodipodi:ry="7"
           sodipodi:rx="7"
           sodipodi:cy="112"
           sodipodi:cx="280"
           id="svg_24"
           r="7"
           cy="112"
           cx="280"
           stroke-linecap="null"
           stroke-linejoin="null"
           transform="matrix(0.85000539,0.49075084,-0.49075084,0.85000539,217.08104,-44.9654)" />
        <circle
           d="m 309.06226,87 c 0,4.452662 -3.6096,8.062258 -8.06226,8.062258 -4.45266,0 -8.06226,-3.609596 -8.06226,-8.062258 0,-4.452662 3.6096,-8.062258 8.06226,-8.062258 4.45266,0 8.06226,3.609596 8.06226,8.062258 z"
           style="fill:#d45500;stroke:none"
           sodipodi:ry="8.0622578"
           sodipodi:rx="8.0622578"
           sodipodi:cy="87"
           sodipodi:cx="301"
           id="svg_25"
           r="8.0622578"
           cy="87"
           cx="301"
           stroke-linecap="null"
           stroke-linejoin="null"
           transform="matrix(0.85000539,0.49075084,-0.49075084,0.85000539,217.33104,-53.9654)" />
        <circle
           d="m 326.77033,120 c 0,5.94829 -4.82204,10.77033 -10.77033,10.77033 -5.94829,0 -10.77033,-4.82204 -10.77033,-10.77033 0,-5.94829 4.82204,-10.77033 10.77033,-10.77033 5.94829,0 10.77033,4.82204 10.77033,10.77033 z"
           style="fill:#d45500;stroke:none"
           sodipodi:ry="10.77033"
           sodipodi:rx="10.77033"
           sodipodi:cy="120"
           sodipodi:cx="316"
           id="svg_35"
           r="10.77033"
           cy="120"
           cx="316"
           stroke-linecap="null"
           stroke-linejoin="null"
           transform="matrix(0.85000539,0.49075084,-0.49075084,0.85000539,214.58104,-49.2154)" />
        <circle
           d="m 268.43398,90 c 0,5.210244 -4.22374,9.433981 -9.43398,9.433981 -5.21024,0 -9.43398,-4.223737 -9.43398,-9.433981 0,-5.210244 4.22374,-9.433981 9.43398,-9.433981 5.21024,0 9.43398,4.223737 9.43398,9.433981 z"
           style="fill:#d45500;stroke:none"
           sodipodi:ry="9.4339809"
           sodipodi:rx="9.4339809"
           sodipodi:cy="90"
           sodipodi:cx="259"
           id="svg_36"
           r="9.4339809"
           cy="90"
           cx="259"
           stroke-linecap="null"
           stroke-linejoin="null"
           transform="matrix(0.85000539,0.49075084,-0.49075084,0.85000539,216.33104,-51.7154)" />
        <circle
           d="m 315.07107,62 c 0,3.905243 -3.16583,7.071068 -7.07107,7.071068 -3.90524,0 -7.07107,-3.165825 -7.07107,-7.071068 0,-3.905243 3.16583,-7.071068 7.07107,-7.071068 3.90524,0 7.07107,3.165825 7.07107,7.071068 z"
           style="fill:#d45500;stroke:none"
           sodipodi:ry="7.0710678"
           sodipodi:rx="7.0710678"
           sodipodi:cy="62"
           sodipodi:cx="308"
           id="svg_37"
           r="7.0710678"
           cy="62"
           cx="308"
           stroke-linecap="null"
           stroke-linejoin="null"
           transform="matrix(0.85000539,0.49075084,-0.49075084,0.85000539,180.08104,-40.715404)" />
      </g>
    </g>
  </g>
</svg>
